<svg width="686" height="686" viewBox="0 0 686 686" fill="none" xmlns="http://www.w3.org/2000/svg">
<g clip-path="url(#clip0_1019_590)">
<path d="M342.857 0C153.501 0 0 153.501 0 342.857C0 532.213 153.501 685.714 342.857 685.714C532.208 685.714 685.71 532.213 685.71 342.857C685.71 153.501 532.208 0 342.857 0ZM513.638 89.0354L491.79 121.329C462.719 101.745 429.58 87.7474 393.91 80.8389L401.575 42.6177C441.75 50.3869 479.735 66.1217 513.638 89.0354ZM284.139 42.6177L291.522 80.8943C255.864 87.8423 222.738 101.87 193.686 121.486L172.076 89.0354C205.979 66.1217 243.962 50.3869 284.139 42.6177ZM89.0356 172.074L121.329 193.922C101.745 222.993 87.7496 256.13 80.841 291.799L42.6177 284.134C50.3891 243.962 66.1239 205.977 89.0356 172.074ZM89.0333 513.636C66.1193 479.733 50.3868 441.748 42.6177 401.573L80.8942 394.19C87.8422 429.848 101.87 462.976 121.486 492.029L89.0333 513.636ZM172.072 596.677L193.919 564.383C222.99 583.969 256.13 597.967 291.802 604.875L284.137 643.099C243.959 635.325 205.972 619.593 172.072 596.677ZM401.573 643.099L394.19 604.822C429.85 597.874 462.976 583.847 492.031 564.229L513.64 596.679C479.735 619.595 441.748 635.33 401.573 643.099ZM596.679 513.638L564.386 491.79C583.969 462.719 597.965 429.578 604.873 393.91L643.094 401.575C635.323 441.75 619.59 479.735 596.679 513.638ZM604.818 291.522C597.87 255.864 583.842 222.736 564.224 193.681L596.674 172.071C619.588 205.974 635.323 243.962 643.092 284.137L604.818 291.522Z" fill="black"/>
<path d="M256.024 437.096C239.299 437.096 224.365 433.341 211.224 425.832C198.253 418.323 188.013 407.571 180.504 393.576C173.165 379.411 169.496 362.344 169.496 342.376C169.496 323.091 172.995 306.365 179.992 292.2C187.16 277.864 197.315 266.771 210.456 258.92C223.597 251.069 239.043 247.144 256.792 247.144C281.197 247.144 300.141 253.117 313.624 265.064C327.277 277.011 336.067 294.163 339.992 316.52L293.656 318.312C291.779 307.389 287.683 298.856 281.368 292.712C275.053 286.568 266.861 283.496 256.792 283.496C247.917 283.496 240.323 285.971 234.008 290.92C227.864 295.869 223.171 302.781 219.928 311.656C216.856 320.531 215.32 330.771 215.32 342.376C215.32 354.323 216.941 364.648 220.184 373.352C223.597 382.056 228.376 388.797 234.52 393.576C240.664 398.355 248.003 400.744 256.536 400.744C267.629 400.744 276.163 397.501 282.136 391.016C288.28 384.36 292.205 375.229 293.912 363.624L340.504 365.416C337.944 380.605 333.08 393.576 325.912 404.328C318.744 414.909 309.357 423.016 297.752 428.648C286.147 434.28 272.237 437.096 256.024 437.096ZM363.158 433V251.24H446.358C459.841 251.24 471.531 253.459 481.43 257.896C491.499 262.333 499.265 268.648 504.726 276.84C510.187 284.861 512.918 294.333 512.918 305.256C512.918 313.789 511.211 321.299 507.798 327.784C504.385 334.269 499.606 339.645 493.462 343.912C487.489 348.008 480.321 350.739 471.958 352.104L471.19 349.544C483.649 349.544 493.035 352.189 499.35 357.48C505.835 362.771 509.419 370.707 510.102 381.288L514.454 433H468.886L466.07 388.712C465.558 381.885 463.51 376.851 459.926 373.608C456.513 370.365 450.454 368.744 441.75 368.744H407.702V433H363.158ZM407.702 332.392H439.446C448.491 332.392 455.403 330.429 460.182 326.504C464.961 322.579 467.35 317.032 467.35 309.864C467.35 302.525 464.875 296.979 459.926 293.224C455.147 289.469 448.15 287.592 438.934 287.592H407.702V332.392Z" fill="white"/>
</g>
<defs>
<clipPath id="clip0_1019_590">
<rect width="686" height="686" fill="white"/>
</clipPath>
</defs>
</svg>
