<svg width="320" height="353" viewBox="0 0 320 353" fill="none" xmlns="http://www.w3.org/2000/svg">
<g clip-path="url(#clip0_1023_587)">
<path d="M124.52 43.8721H112.557V68.3156H82.6373V223.869H112.557V253.282H124.52V223.869H154.439V68.3156H124.52V43.8721Z" fill="black"/>
<path d="M319.714 24.4325H289.807V0H277.832V24.4325H247.913V203.923H277.832V233.336H289.807V203.923H319.714V24.4325Z" fill="black"/>
<path d="M41.8704 137.609H29.9075V164.537H0V326.072H29.9075V353H41.8704V326.072H71.8007V164.537H41.8704V137.609ZM59.8377 176.5V314.109H11.963V176.5H59.8377Z" fill="black"/>
<path d="M207.158 99.7182H195.195V124.151H165.275V291.679H195.195V321.092H207.158V291.679H237.077V124.151H207.158V99.7182ZM225.114 136.125V279.715H177.239V136.125H225.114Z" fill="black"/>
</g>
<defs>
<clipPath id="clip0_1023_587">
<rect width="320" height="353" fill="white"/>
</clipPath>
</defs>
</svg>
