<svg width="686" height="686" viewBox="0 0 686 686" fill="none" xmlns="http://www.w3.org/2000/svg">
<g clip-path="url(#clip0_1017_629)">
<path d="M342.857 0C153.501 0 0 153.501 0 342.857C0 532.213 153.501 685.714 342.857 685.714C532.208 685.714 685.71 532.213 685.71 342.857C685.71 153.501 532.208 0 342.857 0ZM513.638 89.0354L491.79 121.329C462.719 101.745 429.58 87.7474 393.91 80.8389L401.575 42.6177C441.75 50.3869 479.735 66.1217 513.638 89.0354ZM284.139 42.6177L291.522 80.8943C255.864 87.8423 222.738 101.87 193.686 121.486L172.076 89.0354C205.979 66.1217 243.962 50.3869 284.139 42.6177ZM89.0356 172.074L121.329 193.922C101.745 222.993 87.7496 256.13 80.841 291.799L42.6177 284.134C50.3891 243.962 66.1239 205.977 89.0356 172.074ZM89.0333 513.636C66.1193 479.733 50.3868 441.748 42.6177 401.573L80.8942 394.19C87.8422 429.848 101.87 462.976 121.486 492.029L89.0333 513.636ZM172.072 596.677L193.919 564.383C222.99 583.969 256.13 597.967 291.802 604.875L284.137 643.099C243.959 635.325 205.972 619.593 172.072 596.677ZM401.573 643.099L394.19 604.822C429.85 597.874 462.976 583.847 492.031 564.229L513.64 596.679C479.735 619.595 441.748 635.33 401.573 643.099ZM596.679 513.638L564.386 491.79C583.969 462.719 597.965 429.578 604.873 393.91L643.094 401.575C635.323 441.75 619.59 479.735 596.679 513.638ZM604.818 291.522C597.87 255.864 583.842 222.736 564.224 193.681L596.674 172.071C619.588 205.974 635.323 243.962 643.092 284.137L604.818 291.522Z" fill="black"/>
<path d="M307.52 209.872H295.557V234.316H265.637V389.869H295.557V419.282H307.52V389.869H337.439V234.316H307.52V209.872Z" fill="white"/>
<path d="M502.714 190.432H472.807V166H460.832V190.432H430.913V369.923H460.832V399.336H472.807V369.923H502.714V190.432Z" fill="white"/>
<path d="M224.87 303.609H212.907V330.537H183V492.072H212.907V519H224.87V492.072H254.801V330.537H224.87V303.609ZM242.838 342.5V480.109H194.963V342.5H242.838Z" fill="white"/>
<path d="M390.158 265.718H378.195V290.151H348.275V457.679H378.195V487.092H390.158V457.679H420.077V290.151H390.158V265.718ZM408.114 302.125V445.715H360.239V302.125H408.114Z" fill="white"/>
</g>
<defs>
<clipPath id="clip0_1017_629">
<rect width="686" height="686" fill="white"/>
</clipPath>
</defs>
</svg>
